<svg width="15" height="15" viewBox="0 0 15 15" fill="none" xmlns="http://www.w3.org/2000/svg">
<g clip-path="url(#clip0_1545_12975)">
<path d="M1.34729 12.25C1.34729 12.25 3.34729 10.25 7.84729 10.25C12.3473 10.25 14.3473 12.25 14.3473 12.25" stroke="#000001" stroke-linecap="round" stroke-linejoin="round"/>
<path d="M7.84729 10.25V14.25" stroke="#000001" stroke-linecap="round" stroke-linejoin="round"/>
<path d="M3.34729 14.25L6.84729 10.28" stroke="#000001" stroke-linecap="round" stroke-linejoin="round"/>
<path d="M12.3473 14.25L8.84729 10.28" stroke="#000001" stroke-linecap="round" stroke-linejoin="round"/>
<path d="M4.38728 8.25C4.37204 8.08368 4.37204 7.91632 4.38728 7.75C4.38728 6.82174 4.75603 5.9315 5.41241 5.27513C6.06879 4.61875 6.95903 4.25 7.88728 4.25C8.81554 4.25 9.70578 4.61875 10.3622 5.27513C11.0185 5.9315 11.3873 6.82174 11.3873 7.75C11.4025 7.91632 11.4025 8.08368 11.3873 8.25" stroke="#000001" stroke-linecap="round" stroke-linejoin="round"/>
<path d="M1.34729 7.75H2.34729" stroke="#000001" stroke-linecap="round" stroke-linejoin="round"/>
<path d="M3.34729 3.25L3.84729 3.75" stroke="#000001" stroke-linecap="round" stroke-linejoin="round"/>
<path d="M7.84729 1.25V2.25" stroke="#000001" stroke-linecap="round" stroke-linejoin="round"/>
<path d="M12.3473 3.25L11.8473 3.75" stroke="#000001" stroke-linecap="round" stroke-linejoin="round"/>
<path d="M14.3473 7.75H13.3473" stroke="#000001" stroke-linecap="round" stroke-linejoin="round"/>
</g>
<defs>
<clipPath id="clip0_1545_12975">
<rect width="14" height="14" fill="white" transform="translate(0.84729 0.75)"/>
</clipPath>
</defs>
</svg>
